<?xml version="1.0" standalone="no"?>
<!DOCTYPE svg PUBLIC "-//W3C//DTD SVG 20010904//EN"
 "http://www.w3.org/TR/2001/REC-SVG-20010904/DTD/svg10.dtd">
<svg version="1.0" xmlns="http://www.w3.org/2000/svg"
 width="596.000000pt" height="596.000000pt" viewBox="0 0 596.000000 596.000000"
 preserveAspectRatio="xMidYMid meet">
<metadata>
Created by potrace 1.14, written by Peter Selinger 2001-2017
</metadata>
<g transform="translate(0.000000,596.000000) scale(0.100000,-0.100000)"
fill="#000000" stroke="none">
<path d="M3165 5954 c-5 -1 -93 -12 -195 -24 -218 -24 -277 -33 -430 -67 -63
-13 -122 -26 -130 -28 -8 -2 -67 -17 -130 -33 -447 -117 -665 -272 -662 -473
2 -135 99 -267 464 -627 115 -113 126 -127 113 -142 -8 -9 -39 -76 -68 -150
-30 -74 -58 -144 -62 -155 -22 -55 -9 -75 56 -84 l38 -6 -30 -35 c-17 -19 -56
-63 -86 -98 -30 -34 -82 -95 -115 -135 -33 -39 -72 -85 -86 -102 -15 -16 -88
-111 -163 -211 -407 -539 -669 -1017 -802 -1464 -101 -339 -110 -687 -26 -945
37 -111 109 -248 171 -325 15 -19 28 -39 28 -45 0 -14 -52 -61 -63 -57 -5 1
-6 -2 -2 -8 3 -5 2 -10 -4 -10 -16 0 -61 -53 -54 -64 4 -5 -1 -7 -11 -3 -10 4
-15 3 -11 -3 3 -6 2 -10 -2 -10 -5 0 -14 -9 -21 -21 -11 -17 -11 -20 0 -14 7
3 5 0 -5 -8 -18 -15 -24 -32 -6 -22 6 4 18 0 27 -9 9 -10 25 -22 34 -29 13 -9
15 -16 7 -27 -9 -12 -10 -12 -5 4 5 14 2 17 -11 12 -10 -4 -15 -4 -11 -1 3 4
-3 16 -15 28 -13 13 -22 17 -25 9 -2 -7 -9 -9 -14 -6 -7 4 -8 2 -4 -4 4 -7 2
-12 -5 -12 -8 0 -7 -5 2 -17 8 -9 9 -14 3 -10 -7 4 -14 0 -18 -8 -3 -8 -1 -17
5 -20 5 -4 7 -10 4 -15 -10 -16 7 -61 21 -56 8 3 11 0 8 -9 -6 -16 34 -65 53
-65 8 0 12 -4 9 -9 -3 -4 11 -17 32 -27 20 -10 39 -22 42 -25 9 -11 154 -69
226 -89 104 -31 226 -57 391 -85 139 -23 187 -29 308 -40 28 -3 66 -7 85 -10
19 -2 69 -7 110 -10 41 -3 95 -8 120 -10 25 -3 88 -7 140 -10 52 -3 127 -8
165 -10 277 -16 390 -19 700 -19 313 0 426 3 615 20 95 8 219 23 290 34 30 5
73 12 95 16 241 35 556 142 687 232 102 70 174 167 181 244 4 45 -16 119 -46
171 -24 41 -109 131 -141 149 -13 7 -11 15 15 59 96 164 181 430 206 644 9 88
10 336 1 435 -59 611 -414 1256 -949 1721 -34 30 -67 59 -74 66 -6 6 -54 43
-106 82 -52 39 -103 78 -114 87 -11 8 -57 38 -102 67 -45 29 -82 58 -83 65 0
7 -4 11 -8 8 -4 -2 -14 -1 -21 3 -11 7 -11 16 -1 45 22 68 18 96 -20 123 -15
11 -16 19 -8 58 13 59 -1 81 -71 115 -54 27 -57 35 -37 92 11 31 11 42 0 63
-12 23 -7 40 67 213 174 404 230 588 234 757 1 83 -36 188 -87 246 -48 54
-137 99 -249 125 -27 6 -348 14 -364 8z m-2095 -5179 c0 -8 6 -14 13 -12 7 1
11 -6 9 -16 -2 -10 3 -16 10 -15 7 2 12 -3 11 -9 -3 -12 4 -15 23 -12 12 1 24
-26 18 -43 -3 -12 0 -18 10 -18 20 0 31 -19 18 -32 -14 -14 -44 34 -36 58 5
18 5 18 -10 0 -8 -10 -20 -15 -27 -11 -7 5 -10 3 -7 -6 3 -8 9 -13 14 -12 5 0
17 -10 27 -23 23 -31 18 -30 -19 1 -16 14 -32 25 -36 25 -3 0 -5 14 -3 31 4
27 2 29 -11 18 -8 -7 -12 -19 -9 -27 3 -8 0 -21 -7 -29 -10 -12 -9 -14 3 -13
25 4 39 0 39 -11 0 -5 -6 -7 -12 -3 -22 14 -48 11 -46 -4 2 -8 -2 -17 -9 -19
-8 -3 -11 5 -8 27 2 21 0 30 -8 27 -7 -2 -11 -16 -11 -31 1 -14 -1 -25 -3 -22
-3 3 -16 -7 -30 -22 -13 -15 -21 -21 -17 -13 5 11 3 13 -10 8 -11 -4 -15 -3
-11 4 4 6 13 8 19 6 7 -3 18 4 25 15 17 28 23 60 9 56 -6 -2 -12 -12 -14 -22
-1 -10 -4 -19 -6 -20 -52 -34 -56 -35 -62 -21 -3 8 -2 22 1 32 5 12 3 14 -8 8
-12 -7 -12 -6 -1 6 7 8 17 15 23 15 5 1 14 2 20 3 8 1 8 5 0 14 -8 11 -5 19
14 37 14 13 25 20 25 16 0 -3 17 11 37 34 40 43 53 49 53 25z m131 -122 c13
-17 13 -17 -6 -3 -11 8 -22 16 -24 17 -2 2 0 3 6 3 6 0 17 -8 24 -17z m3 -47
c-3 -9 -10 -16 -15 -16 -5 0 -4 9 3 20 14 22 21 20 12 -4z m-69 -15 c-6 -5
-25 10 -25 20 0 5 6 4 14 -3 8 -7 12 -15 11 -17z m111 4 c0 -14 -4 -25 -9 -25
-5 0 -6 7 -3 16 5 12 2 15 -11 10 -15 -5 -15 -4 1 9 11 8 20 15 21 15 1 0 1
-11 1 -25z m-136 -11 c22 -15 40 -29 40 -31 0 -5 -15 3 -51 29 -25 16 -27 16
-33 2 -4 -9 -9 -15 -11 -12 -6 5 4 38 11 38 3 0 22 -12 44 -26z m60 -4 c0 -5
-4 -10 -10 -10 -5 0 -10 5 -10 10 0 6 5 10 10 10 6 0 10 -4 10 -10z m-146 -15
c3 -8 1 -15 -4 -15 -6 0 -10 7 -10 15 0 8 2 15 4 15 2 0 6 -7 10 -15z m-29
-12 c-2 -10 -4 -19 -4 -21 -1 -2 -6 0 -11 3 -8 5 -7 11 1 21 15 18 18 18 14
-3z m104 8 c10 -7 7 -9 -12 -8 -14 1 -23 5 -20 10 6 9 15 9 32 -2z m106 -12
c2 -9 -3 -16 -11 -16 -11 0 -11 3 -1 16 10 12 9 14 -6 8 -11 -4 -16 -3 -12 4
9 14 28 6 30 -12z m77 3 c-3 -10 -1 -13 6 -8 7 4 12 5 12 2 0 -15 -20 -14 -29
2 -7 14 -6 19 4 19 7 0 11 -7 7 -15z m-34 -5 c8 -10 6 -13 -7 -13 -11 0 -17 6
-14 13 3 7 6 13 8 13 1 0 7 -6 13 -13z m-352 -22 c3 -14 11 -22 17 -18 6 3 7
1 3 -6 -9 -14 -26 -5 -26 15 0 8 -4 14 -10 14 -5 0 -10 5 -10 10 0 21 20 9 26
-15z m229 15 c-3 -5 -12 -10 -18 -10 -7 0 -6 4 3 10 19 12 23 12 15 0z m-72
-7 c-7 -2 -19 -2 -25 0 -7 3 -2 5 12 5 14 0 19 -2 13 -5z m34 -6 c0 -8 -6 -14
-14 -14 -9 0 -10 4 -2 14 6 7 12 13 14 13 1 0 2 -6 2 -13z m-124 -14 c-4 -10
-2 -14 5 -9 6 3 14 1 18 -5 4 -8 3 -9 -4 -5 -13 8 -16 -5 -4 -20 4 -5 0 -2 -9
8 -9 9 -20 14 -24 10 -4 -4 -2 3 4 16 14 26 23 30 14 5z m47 7 c0 -5 -5 -10
-11 -10 -5 0 -7 5 -4 10 3 6 8 10 11 10 2 0 4 -4 4 -10z m160 6 c0 -3 -4 -8
-10 -11 -5 -3 -10 -1 -10 4 0 6 5 11 10 11 6 0 10 -2 10 -4z m-288 -40 c4 3 9
1 12 -4 3 -6 -1 -9 -10 -8 -9 1 -21 11 -26 22 -9 18 -8 18 5 2 8 -10 16 -15
19 -12z m147 -12 c-14 -13 -16 -13 -16 0 0 8 5 12 10 9 7 -4 8 1 3 13 -6 15
-5 17 5 6 11 -10 10 -15 -2 -28z m64 4 c-6 -7 -9 -21 -8 -31 2 -9 0 -15 -5
-12 -13 8 1 55 17 55 3 0 1 -6 -4 -12z m32 -7 c3 -5 2 -12 -3 -15 -5 -3 -9 1
-9 9 0 17 3 19 12 6z m42 -6 c0 -8 -4 -12 -9 -9 -5 3 -6 10 -3 15 9 13 12 11
12 -6z m-230 -1 c-3 -3 -12 -4 -19 -1 -8 3 -5 6 6 6 11 1 17 -2 13 -5z m27
-22 c3 -5 -1 -9 -9 -9 -8 0 -12 4 -9 9 3 4 7 8 9 8 2 0 6 -4 9 -8z m-17 -52
c-2 -23 -10 -17 -12 10 -1 10 2 17 6 14 4 -2 7 -13 6 -24z m143 10 c0 -5 -2
-10 -4 -10 -3 0 -8 5 -11 10 -3 6 -1 10 4 10 6 0 11 -4 11 -10z m160 0 c0 -5
-5 -10 -11 -10 -5 0 -7 5 -4 10 3 6 8 10 11 10 2 0 4 -4 4 -10z m-43 -35 c0
-8 -4 -12 -9 -9 -5 3 -6 10 -3 15 9 13 12 11 12 -6z"/>
<path d="M1009 727 c-16 -16 -29 -25 -29 -21 0 4 -9 -1 -21 -12 -19 -17 -19
-19 -3 -31 11 -8 13 -13 5 -13 -7 0 -11 -6 -8 -13 3 -8 -1 -14 -9 -14 -7 0
-11 3 -9 7 2 4 -1 7 -8 7 -7 0 -13 -11 -13 -24 -1 -13 0 -23 2 -23 13 0 53 33
49 40 -3 5 -1 11 5 15 6 4 8 11 5 16 -7 11 8 12 19 2 4 -4 15 -8 24 -8 9 0 16
-6 14 -14 -3 -12 0 -12 13 -1 8 7 13 20 10 30 -3 9 3 24 14 34 21 19 35 8 25
-21 -5 -15 -4 -15 5 -3 8 11 11 12 11 2 0 -7 5 -10 10 -7 6 3 10 11 10 16 0 6
-4 7 -10 4 -9 -6 -14 8 -11 28 0 4 -2 6 -6 6 -25 -4 -35 2 -25 14 23 28 -40
13 -69 -16z m57 0 c-1 -10 -14 -30 -31 -43 -26 -20 -31 -21 -45 -9 -13 12 -19
12 -30 2 -12 -10 -12 -9 -1 5 7 10 16 16 20 13 4 -2 19 9 33 24 31 32 56 36
54 8z m-16 -67 c0 -5 -2 -10 -4 -10 -3 0 -8 5 -11 10 -3 6 -1 10 4 10 6 0 11
-4 11 -10z"/>
<path d="M1016 711 c-35 -36 -20 -48 20 -16 20 17 26 27 18 34 -7 8 -18 3 -38
-18z m34 12 c0 -5 -13 -17 -28 -27 l-27 -19 24 26 c26 28 31 32 31 20z"/>
<path d="M1165 630 c3 -5 8 -10 11 -10 2 0 4 5 4 10 0 6 -5 10 -11 10 -5 0 -7
-4 -4 -10z"/>
</g>
</svg>
